<?xml version="1.0" standalone="no"?>
<!DOCTYPE svg PUBLIC "-//W3C//DTD SVG 20010904//EN"
 "http://www.w3.org/TR/2001/REC-SVG-20010904/DTD/svg10.dtd">
<svg version="1.0" xmlns="http://www.w3.org/2000/svg"
 width="300.000000pt" height="300.000000pt" viewBox="0 0 300.000000 300.000000"
 preserveAspectRatio="xMidYMid meet">

<g transform="translate(0.000000,300.000000) scale(0.100000,-0.100000)"
fill="#000000" stroke="none">
<path d="M1365 2994 c-404 -58 -666 -182 -921 -438 -224 -225 -354 -468 -416
-779 -32 -159 -32 -395 0 -554 62 -312 192 -555 416 -779 224 -224 467 -354
779 -416 159 -32 395 -32 554 0 312 62 555 192 779 416 224 224 354 467 416
779 32 159 32 395 0 554 -62 312 -192 555 -416 779 -223 222 -467 353 -774
415 -93 19 -349 33 -417 23z m-35 -382 c0 -10 4 -22 10 -28 5 -5 11 -57 14
-114 3 -73 1 -97 -6 -80 -5 14 -8 54 -7 90 2 69 -6 110 -22 110 -5 0 -14 -10
-19 -22 -6 -17 -9 -18 -9 -6 -1 9 4 20 9 23 6 3 10 15 10 26 0 10 5 19 10 19
6 0 10 -8 10 -18z m-43 -324 c-2 -18 -4 -6 -4 27 0 33 2 48 4 33 2 -15 2 -42
0 -60z m70 -10 c-2 -13 -4 -5 -4 17 -1 22 1 32 4 23 2 -10 2 -28 0 -40z m-74
-90 c-1 -29 3 -58 9 -65 8 -10 7 -12 -6 -7 -14 5 -16 1 -13 -30 2 -20 0 -36
-4 -36 -5 0 -7 -13 -5 -30 2 -16 -1 -30 -5 -30 -18 0 -8 -27 14 -39 22 -11 22
-11 -3 -5 -14 4 -26 8 -28 9 -1 1 4 44 13 96 8 52 15 112 15 135 0 32 6 54 14
54 1 0 0 -23 -1 -52z m84 -15 c-3 -10 -5 -2 -5 17 0 19 2 27 5 18 2 -10 2 -26
0 -35z m13 -75 c0 -18 8 -68 18 -111 14 -63 22 -80 41 -90 14 -7 26 -19 28
-27 3 -10 1 -9 -7 3 -6 9 -19 17 -29 17 -25 0 -57 25 -43 34 17 10 15 26 -3
26 -8 0 -15 -7 -15 -15 0 -8 -4 -15 -10 -15 -5 0 -10 -5 -10 -11 0 -5 4 -8 9
-4 5 3 12 1 16 -5 9 -15 -21 -12 -34 4 -9 11 -8 15 4 20 9 3 14 10 10 15 -3 5
4 12 15 16 19 6 29 35 12 35 -5 0 -7 14 -4 30 2 17 0 30 -5 30 -5 0 -7 16 -5
37 4 31 2 35 -12 30 -10 -4 -15 -3 -11 3 14 23 35 9 35 -22z m-662 -139 c23
-7 42 -15 42 -19 0 -4 -26 -27 -57 -51 -32 -24 -68 -54 -81 -68 -44 -47 -12
-32 68 33 45 36 86 66 90 66 14 0 22 -71 9 -86 -7 -8 -48 -40 -91 -70 -85 -60
-189 -153 -173 -154 6 0 38 23 70 51 76 64 180 139 194 139 6 0 11 -13 11 -29
0 -25 -11 -37 -82 -87 -110 -77 -206 -154 -212 -170 -9 -23 1 -17 77 47 89 76
191 149 206 149 6 0 11 -8 11 -19 0 -11 -26 -35 -72 -66 -110 -72 -238 -168
-238 -178 0 -5 22 7 49 27 56 41 61 43 61 18 0 -30 -58 -244 -69 -255 -11 -11
-101 14 -128 36 -28 21 -10 85 103 370 64 160 120 302 125 315 6 16 15 22 27
18 9 -2 36 -10 60 -17z m1080 -47 c16 -48 15 -49 -13 -54 -18 -3 -20 2 -18 42
1 47 -9 36 -21 -22 -5 -23 -12 -28 -37 -28 -29 0 -30 1 -24 38 13 73 13 73 58
70 38 -3 41 -6 55 -46z m-123 -14 c-4 -29 -12 -61 -17 -71 -5 -10 -6 -27 -3
-38 11 -34 -6 -149 -21 -149 -10 0 -14 13 -14 45 0 75 21 239 32 252 22 27 30
13 23 -39z m-397 5 c6 -2 12 1 12 6 0 5 -6 12 -12 14 -7 3 -8 6 -3 6 17 1 40
-17 32 -25 -4 -4 -31 -9 -59 -10 -38 -2 -48 0 -35 7 9 6 17 17 17 26 0 14 3
13 18 -3 9 -10 23 -20 30 -21z m348 0 c-2 -16 -8 -64 -11 -108 -9 -118 -14
-140 -30 -124 -10 11 -9 37 6 134 10 66 18 121 18 123 1 1 6 2 12 2 6 0 8 -11
5 -27z m-37 -20 c0 -39 -25 -172 -32 -180 -4 -3 -14 11 -23 33 -21 51 -14 117
17 150 29 31 39 30 38 -3z m-562 -23 c47 -28 56 -51 39 -97 -8 -21 -50 -132
-92 -247 l-76 -210 -82 -78 c-44 -43 -83 -78 -86 -78 -3 0 -12 5 -20 10 -12 7
8 32 99 125 63 63 112 118 108 121 -3 3 -54 -43 -112 -102 l-107 -109 -14 25
c-7 14 -13 29 -14 33 0 4 64 70 143 146 78 77 139 143 135 147 -5 4 -64 -50
-132 -119 -68 -70 -128 -127 -133 -127 -11 0 -33 66 -33 97 0 14 32 44 103 96
108 79 144 113 134 124 -4 3 -19 -4 -34 -18 -23 -21 -25 -22 -19 -4 5 11 15
39 23 62 12 36 23 46 84 78 84 44 86 57 4 20 -32 -14 -59 -24 -61 -22 -9 8 34
73 54 82 27 12 29 25 2 18 -24 -6 -26 9 -4 31 21 21 52 20 91 -4z m202 -22
c13 -4 13 -5 0 -10 -9 -4 -21 2 -29 15 -11 19 -11 20 1 11 8 -6 21 -13 28 -16z
m215 -87 c-11 -12 -22 17 -16 44 l6 30 7 -35 c4 -19 5 -37 3 -39z m-220 26 c7
-5 5 -12 -8 -22 -25 -19 -28 -16 -19 26 3 19 9 27 11 19 3 -8 10 -18 16 -23z
m489 -24 c3 -5 0 -34 -6 -65 -8 -47 -14 -58 -30 -58 -17 0 -19 5 -13 38 3 20
6 49 6 65 0 20 5 27 19 27 11 0 22 -3 24 -7z m-373 -43 c5 8 7 -4 4 -31 -3
-34 -2 -40 6 -24 7 15 8 9 4 -24 -5 -33 -3 -42 6 -36 8 5 11 3 8 -6 -8 -25
-98 -23 -98 2 0 6 6 9 14 6 10 -4 17 14 27 71 7 45 15 67 17 53 3 -18 6 -21
12 -11z m145 -78 c-8 -8 -35 33 -30 46 3 8 0 21 -6 28 -6 7 -8 18 -4 25 4 6
15 -12 25 -42 10 -30 17 -55 15 -57z m308 92 c105 -53 150 -160 107 -249 -21
-42 -55 -74 -67 -61 -3 3 0 49 7 101 6 53 9 99 6 103 -3 3 -6 1 -6 -4 -1 -46
-31 -208 -40 -219 -7 -8 -26 -15 -42 -15 -23 0 -28 4 -24 18 2 9 8 33 11 52 4
19 16 45 27 57 16 17 19 28 12 50 -4 15 -7 43 -5 61 1 17 -2 32 -8 32 -6 0 -8
-6 -6 -12 3 -7 1 -19 -4 -27 -7 -10 -13 -11 -31 -1 -20 10 -21 17 -15 57 12
81 20 86 78 57z m-583 -11 c0 -7 -7 -13 -15 -13 -17 0 -20 -16 -5 -25 7 -4 6
-13 -1 -27 -9 -17 -13 -18 -20 -7 -12 19 -11 32 1 24 5 -3 9 2 8 12 -3 35 2
50 17 50 8 0 15 -6 15 -14z m1443 3 c8 -8 21 -69 31 -155 18 -137 18 -142 0
-201 -11 -33 -25 -60 -31 -60 -7 0 -13 5 -13 10 0 6 -6 10 -14 10 -16 0 -29
27 -19 42 3 6 2 8 -4 5 -6 -4 -20 4 -32 17 l-22 24 29 58 c16 33 33 70 37 84
7 22 6 23 -9 11 -14 -12 -16 -10 -16 19 0 17 9 46 21 63 19 29 19 30 1 10 -27
-31 -35 -29 -30 7 2 16 0 31 -6 33 -19 6 14 37 40 37 12 0 29 -6 37 -14z
m-1343 -6 c0 -5 -4 -10 -10 -10 -5 0 -10 5 -10 10 0 6 5 10 10 10 6 0 10 -4
10 -10z m1160 -14 c0 -2 -9 -25 -21 -51 -11 -25 -19 -49 -16 -51 2 -2 14 18
25 46 11 27 26 50 31 50 14 0 25 -45 15 -62 -6 -11 -5 -11 8 0 13 10 17 10 22
-3 3 -9 1 -26 -6 -38 -10 -20 -10 -21 6 -8 25 21 30 7 11 -31 -16 -32 -16 -33
2 -10 15 18 21 20 31 10 17 -17 14 -37 -11 -86 -23 -43 -23 -43 -41 -23 -10
11 -16 27 -12 36 3 9 2 14 -3 11 -12 -8 -21 -46 -11 -46 7 0 40 -116 40 -143
0 -21 -69 -33 -86 -15 -8 8 -21 86 -33 196 -25 220 -25 209 -3 215 23 6 52 8
52 3z m-122 -62 c1 -25 4 -54 7 -65 3 -10 1 -27 -5 -38 -9 -17 -8 -20 5 -15 9
4 15 1 15 -7 0 -8 6 -47 14 -87 l14 -74 -30 -34 c-39 -44 -52 -44 -45 0 3 19
2 36 -3 38 -10 4 -40 215 -33 233 2 7 0 16 -6 20 -18 10 -12 44 9 55 11 6 20
7 20 3 0 -4 5 -2 12 5 20 20 25 14 26 -34z m-1057 3 c-8 -8 -11 -7 -11 4 0 9
3 19 7 23 4 4 9 2 11 -4 3 -7 -1 -17 -7 -23z m154 23 c3 -5 1 -10 -4 -10 -6 0
-11 5 -11 10 0 6 2 10 4 10 3 0 8 -4 11 -10z m-637 -66 c-3 -35 -10 -44 -78
-96 -41 -31 -78 -53 -82 -50 -4 4 -10 26 -14 49 l-6 41 83 56 c46 31 87 52 92
47 5 -5 7 -26 5 -47z m1374 40 c57 -30 76 -118 36 -169 -17 -22 -22 -42 -23
-86 0 -31 3 -55 8 -52 4 2 7 -5 7 -16 0 -31 -18 -35 -41 -9 -16 19 -18 32 -14
71 3 26 8 55 11 65 3 10 1 9 -5 -3 -5 -11 -13 -36 -18 -55 l-9 -35 -14 32 c-8
18 -17 27 -21 21 -4 -6 -12 -7 -21 -2 -11 7 -13 17 -6 40 10 39 38 54 38 21 1
-15 5 -10 15 18 16 44 21 119 6 96 -12 -18 -26 5 -24 39 1 19 0 20 -3 5 -6
-20 -31 -45 -46 -45 -4 0 -5 6 -3 13 22 63 22 63 61 64 21 1 51 -5 66 -13z
m-937 -4 c3 -5 -1 -10 -10 -10 -9 0 -13 5 -10 10 3 6 8 10 10 10 2 0 7 -4 10
-10z m180 0 c3 -5 -3 -10 -15 -10 -12 0 -18 5 -15 10 3 6 10 10 15 10 5 0 12
-4 15 -10z m631 -7 c-15 -51 -17 -74 -9 -86 19 -23 22 -72 8 -129 -9 -38 -9
-57 -3 -55 13 2 50 -115 40 -124 -4 -4 -22 -10 -39 -14 -36 -7 -35 -12 -17 85
3 18 2 21 -5 11 -14 -21 -24 22 -17 77 4 30 3 40 -3 27 -7 -17 -10 -14 -20 23
-7 24 -10 64 -7 90 4 30 3 38 -2 22 l-8 -25 -7 25 c-4 14 -7 37 -7 52 0 21 5
27 28 31 63 9 74 8 68 -10z m-532 -46 c11 -4 15 -17 14 -39 l-1 -33 -4 32 c-3
23 -10 33 -29 37 -23 6 -32 25 -17 40 4 4 10 -2 14 -12 4 -11 14 -22 23 -25z
m-354 18 c0 -8 -9 -15 -20 -15 -13 0 -18 5 -14 15 4 8 12 15 20 15 8 0 14 -7
14 -15z m57 -21 c-3 -3 -12 -4 -19 -1 -8 3 -5 6 6 6 11 1 17 -2 13 -5z m210 0
c-3 -3 -12 -4 -19 -1 -8 3 -5 6 6 6 11 1 17 -2 13 -5z m-330 -19 c0 -8 -4 -12
-9 -9 -4 3 -8 9 -8 15 0 5 4 9 8 9 5 0 9 -7 9 -15z m90 -11 c-3 -3 -12 -4 -19
-1 -8 3 -5 6 6 6 11 1 17 -2 13 -5z m130 0 c-3 -3 -12 -4 -19 -1 -8 3 -5 6 6
6 11 1 17 -2 13 -5z m90 0 c-3 -3 -12 -4 -19 -1 -8 3 -5 6 6 6 11 1 17 -2 13
-5z m40 0 c-3 -3 -12 -4 -19 -1 -8 3 -5 6 6 6 11 1 17 -2 13 -5z m112 -104 c0
-10 -3 -8 -9 5 -12 27 -12 43 0 25 5 -8 9 -22 9 -30z m158 -15 c-7 -39 -16
-56 -29 -60 -30 -10 -37 2 -27 47 14 64 16 68 42 68 23 0 23 -1 14 -55z m-63
8 c-11 -75 -27 -86 -38 -27 -4 19 -10 42 -13 50 -4 10 3 14 25 14 30 0 31 -1
26 -37z m-514 -23 c0 -5 -4 -10 -10 -10 -5 0 -10 5 -10 10 0 6 5 10 10 10 6 0
10 -4 10 -10z m362 -2 c-9 -9 -15 -9 -24 0 -9 9 -7 12 12 12 19 0 21 -3 12
-12z m81 -18 c6 -24 3 -25 -17 -4 -9 8 -14 20 -10 25 8 13 21 3 27 -21z m-503
11 c0 -5 -7 -14 -15 -21 -12 -10 -19 -10 -27 -2 -9 9 -9 12 1 12 7 0 9 5 6 10
-3 6 3 10 14 10 12 0 21 -4 21 -9z m309 -22 c13 -9 12 -9 -4 -4 -11 4 -39 10
-62 12 -24 3 -40 9 -38 13 6 9 81 -6 104 -21z m156 11 c3 -5 2 -10 -4 -10 -5
0 -13 5 -16 10 -3 6 -2 10 4 10 5 0 13 -4 16 -10z m-75 -4 c0 -11 -19 -15 -25
-6 -3 5 1 10 9 10 9 0 16 -2 16 -4z m-335 -16 c3 -5 -1 -10 -10 -10 -9 0 -13
5 -10 10 3 6 8 10 10 10 2 0 7 -4 10 -10z m380 0 c3 -5 -3 -10 -15 -10 -12 0
-18 5 -15 10 3 6 10 10 15 10 5 0 12 -4 15 -10z m-489 -9 c-4 -5 -1 -11 6 -13
20 -7 0 -38 -24 -38 -21 0 -21 0 -2 16 10 8 13 12 6 9 -11 -6 -12 -3 -3 14 7
11 14 21 17 21 3 0 3 -4 0 -9z m1674 -15 c0 -13 -7 -26 -15 -30 -16 -6 -18 -2
-9 32 8 29 24 28 24 -2z m-1091 -31 c0 -5 -6 -1 -14 9 -8 10 -11 24 -8 29 6
10 21 -16 22 -38z m-76 28 c-7 -2 -19 -2 -25 0 -7 3 -2 5 12 5 14 0 19 -2 13
-5z m-39 -24 c-6 -11 -24 -2 -24 11 0 5 7 7 15 4 8 -4 12 -10 9 -15z m81 11
c3 -5 1 -10 -4 -10 -6 0 -11 5 -11 10 0 6 2 10 4 10 3 0 8 -4 11 -10z m705
-64 c0 -12 -77 -33 -86 -23 -2 2 3 25 13 52 l16 48 29 -31 c15 -18 28 -38 28
-46z m-1140 54 c0 -5 -2 -10 -4 -10 -3 0 -8 5 -11 10 -3 6 -1 10 4 10 6 0 11
-4 11 -10z m1258 -43 c-3 -23 -35 -34 -65 -22 -13 5 -10 12 17 40 28 29 36 33
43 20 4 -9 7 -26 5 -38z m-853 33 c3 -5 -3 -10 -15 -10 -12 0 -18 5 -15 10 3
6 10 10 15 10 5 0 12 -4 15 -10z m-442 -7 c-7 -2 -19 -2 -25 0 -7 3 -2 5 12 5
14 0 19 -2 13 -5z m539 -23 c2 -8 10 -20 18 -27 8 -6 11 -15 7 -19 -12 -12
-39 21 -43 51 -3 28 12 23 18 -5z m-552 6 c0 -9 -30 -14 -35 -6 -4 6 3 10 14
10 12 0 21 -2 21 -4z m484 -6 c-7 -7 -19 -7 -35 -1 -23 9 -22 10 11 10 23 1
31 -2 24 -9z m-571 -15 c-3 -9 -24 -25 -47 -36 l-41 -20 35 34 c38 37 63 47
53 22z m537 -15 c0 -6 -7 -10 -15 -10 -8 0 -15 2 -15 4 0 2 -3 12 -7 21 -5 15
-3 16 15 6 12 -7 22 -16 22 -21z m-426 5 c-7 -17 -20 -20 -28 -6 -7 10 3 21
20 21 8 0 11 -6 8 -15z m501 5 c3 -5 -1 -10 -9 -10 -9 0 -16 5 -16 10 0 6 4
10 9 10 6 0 13 -4 16 -10z m-30 -20 c3 -5 -3 -10 -15 -10 -12 0 -18 5 -15 10
3 6 10 10 15 10 5 0 12 -4 15 -10z m-750 -53 c-13 -31 -20 -37 -45 -37 -17 0
-30 4 -30 9 0 14 84 85 87 75 2 -6 -3 -27 -12 -47z m228 46 c-7 -2 -19 -2 -25
0 -7 3 -2 5 12 5 14 0 19 -2 13 -5z m432 -60 c0 -28 1 -28 75 -34 l75 -5 -77
-2 c-75 -2 -78 -1 -84 22 -5 21 0 46 9 46 2 0 3 -12 2 -27z m-359 -28 c-4 -12
-28 -15 -128 -13 l-123 2 123 3 c118 4 122 4 123 26 0 12 3 16 6 9 3 -7 2 -19
-1 -27z m557 -12 c-7 -2 -19 -2 -25 0 -7 3 -2 5 12 5 14 0 19 -2 13 -5z m-411
-186 c123 -2 143 -4 146 -18 2 -11 -6 -18 -25 -22 -25 -5 -29 -11 -31 -44 -1
-21 -4 -68 -8 -105 -5 -61 -8 -68 -28 -68 -41 0 -60 44 -36 80 9 13 13 12 27
-5 14 -18 15 -18 9 -1 -3 10 -1 25 5 32 8 9 8 14 1 14 -6 0 -14 -4 -17 -10
-11 -19 -21 -10 -23 21 -1 17 3 38 9 46 16 19 2 31 -43 37 -24 3 -38 1 -41 -8
-8 -21 -76 3 -70 24 2 8 -1 6 -8 -5 -28 -44 -14 -66 41 -69 18 -1 26 -7 28
-25 3 -22 1 -23 -37 -19 -37 3 -41 1 -50 -25 -7 -19 -7 -26 0 -21 7 4 9 -6 7
-27 -2 -26 -8 -34 -23 -34 -18 0 -20 7 -22 60 -1 33 2 75 7 93 5 19 5 30 -1
27 -5 -4 -9 12 -9 34 0 39 12 53 37 44 7 -3 76 -6 155 -6z m-532 -8 c0 -8 4
-8 13 -2 16 13 57 14 57 2 0 -5 5 -8 12 -6 21 4 38 -47 38 -121 0 -63 -3 -76
-23 -96 -19 -19 -35 -24 -80 -25 l-57 0 0 124 c0 120 3 131 33 134 4 1 7 -4 7
-10z m214 -1 c-5 -7 -3 -8 7 -2 34 21 53 1 64 -66 3 -25 13 -67 21 -94 20 -72
19 -86 -11 -86 -15 0 -25 6 -25 14 0 21 -24 36 -48 29 -12 -3 -20 -8 -18 -12
2 -3 -2 -15 -9 -25 -10 -13 -21 -17 -39 -12 l-24 6 18 70 c10 39 23 77 30 85
6 8 10 22 9 32 -4 26 10 73 22 73 6 0 7 -5 3 -12z m561 -8 c-4 -11 -1 -10 9 3
14 18 32 24 21 7 -3 -5 -2 -10 3 -10 8 0 18 -38 27 -105 1 -5 5 -17 8 -25 3
-8 10 -36 15 -62 9 -47 9 -48 -14 -48 -16 0 -28 8 -36 25 -6 14 -17 25 -24 25
-16 0 -54 -39 -54 -56 0 -13 -37 -8 -46 7 -8 13 16 119 32 144 8 12 15 35 15
51 3 49 9 63 30 61 13 -1 18 -6 14 -17z m259 1 c23 -19 21 -83 -4 -106 -10 -9
-19 -25 -18 -34 1 -9 0 -29 0 -45 -2 -25 -4 -27 -18 -15 -10 8 -13 22 -10 38
3 14 3 20 -1 12 -4 -10 -11 -6 -28 13 -28 33 -36 18 -24 -45 11 -61 12 -59
-15 -59 -22 0 -24 3 -16 29 4 16 6 32 3 34 -2 3 -7 48 -9 100 l-4 95 64 -2
c36 -1 71 -7 80 -15z m176 -5 c0 -19 -4 -22 -22 -19 -37 6 -45 -8 -50 -84 -3
-55 0 -73 9 -73 7 0 13 -4 13 -8 0 -5 10 -8 23 -7 23 2 37 -10 37 -33 0 -19
-86 -12 -110 8 -17 15 -20 30 -20 111 0 52 4 99 8 105 8 14 35 21 80 23 27 1
32 -2 32 -23z m66 8 c-5 -14 -4 -15 9 -4 26 22 30 1 4 -28 -13 -15 -17 -21 -9
-14 19 16 31 15 24 -3 -4 -10 0 -15 11 -15 11 0 15 -5 11 -15 -4 -12 -2 -13
15 -2 16 9 19 21 17 52 -3 39 -2 40 30 43 28 3 32 0 32 -20 0 -13 -4 -30 -10
-38 -5 -8 -6 -17 -2 -20 4 -3 5 -43 2 -90 -5 -84 -5 -85 -32 -88 -26 -3 -28
-1 -28 30 1 18 7 44 15 58 18 31 19 44 3 33 -7 -4 -25 -6 -40 -4 -30 3 -31 1
-28 -66 2 -54 -5 -66 -31 -53 -26 14 -27 94 -1 124 16 20 16 20 0 7 -16 -12
-18 -10 -18 26 0 21 6 45 13 52 10 11 10 13 0 7 -9 -5 -13 1 -13 18 0 17 5 26
16 26 11 0 14 -5 10 -16z m204 -36 c-1 -29 1 -74 5 -100 6 -35 4 -52 -6 -65
-11 -13 -11 -15 -1 -9 10 6 13 2 10 -15 -2 -16 -10 -24 -23 -24 -19 0 -20 8
-23 127 -2 114 -1 127 15 131 10 3 19 5 21 6 2 0 2 -23 2 -51z m-420 -195 c0
-7 -11 -13 -25 -13 -27 0 -31 10 -14 41 10 20 11 20 24 2 8 -10 15 -24 15 -30z
m-290 -243 c0 -22 -4 -40 -8 -40 -4 0 -7 12 -6 28 1 15 3 33 3 40 1 6 3 12 6
12 3 0 5 -18 5 -40z m371 13 c-18 -4 -22 -10 -18 -29 2 -13 0 -21 -4 -18 -11
6 -12 38 -2 47 3 4 16 6 27 6 19 -2 18 -2 -3 -6z m97 -17 c2 -10 0 -22 -6 -28
-6 -6 -8 0 -4 18 4 25 3 26 -21 22 -15 -3 -24 -1 -21 4 10 16 49 4 52 -16z
m29 -23 c-3 -10 -5 -2 -5 17 0 19 2 27 5 18 2 -10 2 -26 0 -35z m40 11 c1 -25
0 -26 -4 -4 -3 14 -10 29 -17 33 -7 6 -6 7 4 4 8 -2 16 -16 17 -33z m42 4 c-2
-28 -2 -29 -6 -8 -3 14 -10 28 -17 32 -7 5 -5 8 7 8 13 0 17 -8 16 -32z
m-1312 -15 c-3 -10 -5 -4 -5 12 0 17 2 24 5 18 2 -7 2 -21 0 -30z m116 17 c3
-11 2 -22 -2 -24 -4 -3 -8 6 -9 20 -2 29 4 31 11 4z m77 -24 c0 -6 -7 -1 -15
10 -8 10 -15 23 -15 28 0 6 7 1 15 -10 8 -10 15 -23 15 -28z m52 19 c-2 -14
-6 -25 -8 -25 -2 0 -4 11 -4 25 0 14 4 25 9 25 4 0 6 -11 3 -25z m115 -12 c-3
-10 -5 -4 -5 12 0 17 2 24 5 18 2 -7 2 -21 0 -30z m41 1 c-3 -14 -5 -12 -10 9
-3 19 -2 25 4 19 6 -6 8 -18 6 -28z m82 11 c0 -14 -2 -25 -4 -25 -2 0 -6 11
-8 25 -3 14 -1 25 3 25 5 0 9 -11 9 -25z m55 1 c0 -15 -4 -21 -9 -16 -5 5 -6
16 -3 24 9 22 12 20 12 -8z m102 -13 c-3 -10 -5 -4 -5 12 0 17 2 24 5 18 2 -7
2 -21 0 -30z m58 13 c0 -15 -4 -21 -9 -16 -5 5 -6 16 -3 24 9 22 12 20 12 -8z
m172 -13 c-3 -10 -5 -4 -5 12 0 17 2 24 5 18 2 -7 2 -21 0 -30z m43 33 c0 -3
-4 -8 -10 -11 -5 -3 -10 -1 -10 4 0 6 5 11 10 11 6 0 10 -2 10 -4z m30 -21 c0
-14 -2 -25 -4 -25 -2 0 -6 11 -8 25 -3 14 -1 25 3 25 5 0 9 -11 9 -25z m61
-32 c-9 -16 -10 -16 -11 4 0 12 -3 30 -6 40 -5 13 -2 12 10 -4 13 -17 14 -27
7 -40z m-218 27 c3 -11 1 -18 -4 -14 -5 3 -9 12 -9 20 0 20 7 17 13 -6z m-696
-5 c0 -8 -4 -15 -9 -15 -10 0 -11 14 -1 23 9 10 10 9 10 -8z m520 -7 c-3 -8
-6 -5 -6 6 -1 11 2 17 5 13 3 -3 4 -12 1 -19z m548 2 c3 -5 1 -10 -4 -10 -6 0
-11 5 -11 10 0 6 2 10 4 10 3 0 8 -4 11 -10z"/>
<path d="M2651 1528 c-11 -31 -25 -94 -18 -88 7 7 37 110 31 110 -2 0 -8 -10
-13 -22z"/>
<path d="M2674 1455 c-3 -8 -4 -20 -2 -27 3 -7 7 -1 10 15 6 29 1 36 -8 12z"/>
<path d="M2466 1554 c-14 -31 -26 -61 -26 -68 0 -10 31 50 51 102 17 44 0 21
-25 -34z"/>
<path d="M2481 1491 c-29 -69 -26 -78 5 -12 13 30 23 56 20 58 -2 2 -13 -19
-25 -46z"/>
<path d="M2321 1610 c-7 -16 -5 -58 2 -51 5 5 7 19 4 32 -2 13 -5 22 -6 19z"/>
<path d="M2326 1485 c-3 -9 -6 -22 -5 -28 0 -7 5 -1 10 12 5 13 8 26 5 28 -2
2 -6 -3 -10 -12z"/>
<path d="M2342 1395 c-17 -37 -14 -45 4 -12 9 16 14 31 11 33 -2 2 -9 -7 -15
-21z"/>
<path d="M1992 1600 c0 -14 2 -19 5 -12 2 6 2 18 0 25 -3 6 -5 1 -5 -13z"/>
<path d="M2032 1510 c0 -14 2 -19 5 -12 2 6 2 18 0 25 -3 6 -5 1 -5 -13z"/>
<path d="M2022 1460 c0 -14 2 -19 5 -12 2 6 2 18 0 25 -3 6 -5 1 -5 -13z"/>
<path d="M1346 854 c-5 -14 -4 -15 9 -4 17 14 19 20 6 20 -5 0 -12 -7 -15 -16z"/>
<path d="M1127 831 c-4 -17 -3 -21 5 -13 5 5 8 16 6 23 -3 8 -7 3 -11 -10z"/>
<path d="M802 913 c-30 -6 -34 -18 -36 -108 -1 -63 2 -75 15 -75 25 0 42 27
35 55 -4 15 0 37 9 55 10 20 12 30 4 30 -7 0 -9 10 -7 25 3 14 5 24 4 24 0 -1
-11 -4 -24 -6z"/>
<path d="M855 788 c-4 -13 -7 -26 -6 -30 1 -5 -3 -8 -8 -8 -5 0 -7 -10 -3 -22
4 -17 8 -12 19 26 14 48 12 78 -2 34z"/>
<path d="M1006 913 c-6 -14 -5 -15 5 -6 7 7 10 15 7 18 -3 3 -9 -2 -12 -12z"/>
<path d="M982 873 c-5 -10 -7 -23 -5 -30 2 -7 0 -21 -6 -31 -8 -16 -7 -21 6
-26 9 -4 16 -5 17 -4 1 2 8 12 16 23 14 19 14 19 -2 6 -24 -18 -25 5 -1 31 16
18 16 18 -2 12 -15 -6 -17 -4 -13 14 7 26 2 29 -10 5z"/>
<path d="M950 820 c-6 -11 -8 -20 -6 -20 3 0 10 9 16 20 6 11 8 20 6 20 -3 0
-10 -9 -16 -20z"/>
<path d="M1540 900 c-6 -11 -8 -20 -6 -20 3 0 10 9 16 20 6 11 8 20 6 20 -3 0
-10 -9 -16 -20z"/>
<path d="M1510 850 c-9 -18 -9 -21 0 -15 10 6 11 1 7 -17 -8 -30 16 -60 27
-33 3 8 1 15 -4 15 -16 0 -12 22 8 43 9 11 11 17 3 12 -8 -4 -16 -2 -21 5 -6
9 -11 7 -20 -10z"/>
<path d="M1575 779 c-4 -12 -3 -25 2 -30 6 -6 10 2 10 21 0 35 -3 38 -12 9z"/>
<path d="M1731 923 c0 -7 -9 -13 -20 -13 -10 0 -21 -9 -24 -20 -3 -11 -1 -18
4 -14 5 3 9 -4 9 -15 0 -27 35 -28 50 -2 12 24 13 54 1 46 -5 -3 -12 3 -14 12
-3 10 -5 12 -6 6z"/>
</g>
</svg>
